<?xml version='1.0' encoding='utf-8'?>
<svg xmlns="http://www.w3.org/2000/svg" version="1.1" id="Contours" x="0px" y="0px" width="597.447021" height="192.837402" viewBox="0.000000 0.000000 597.447021 192.837402" stroke="black" fill="none" stroke-linecap="round" stroke-linejoin="round"> <desc> </desc> <path d="M292.9 67.5 C289.2 67.8 285.4 68.2 281.7 68.6 C281.9 65.6 280.5 62.6 278.1 60.9 C262.4 95.8 274.3 136.3 286.4 172.6 C288.4 178.7 284.8 185.6 279.4 188.9 C274.0 192.3 267.3 192.8 260.9 192.4 C251.3 191.8 240.1 187.6 238.0 178.2 C233.5 157.9 228.9 137.6 224.4 117.3 C223.7 114.2 222.8 110.9 220.2 109.2 C218.3 108.0 215.9 108.0 213.7 108.1 C206.2 108.1 198.6 108.2 191.1 108.3 C185.2 108.3 178.1 109.1 175.5 114.4 C170.0 125.2 164.6 136.0 159.2 146.7 C158.1 148.9 156.9 151.2 154.8 152.4 C153.2 153.4 151.2 153.6 149.3 153.8 C142.5 154.4 135.2 154.9 129.1 151.7 C123.0 148.5 119.3 139.9 123.5 134.5 C130.9 124.9 138.3 115.2 145.8 105.6 C149.7 100.5 153.8 94.9 154.0 88.4 C154.1 82.0 148.0 75.2 141.9 77.1 C137.9 78.4 136.2 72.5 135.2 68.4 C134.3 64.4 127.2 61.6 127.3 65.7 C127.4 73.6 110.1 66.0 107.7 73.5 C104.7 82.8 95.7 89.9 85.9 90.6 C73.1 89.7 59.9 95.8 52.4 106.2 C48.0 102.0 48.8 93.7 54.0 90.4 C41.6 91.8 31.0 103.2 30.7 115.7 C35.7 113.5 41.2 120.5 38.8 125.5 C36.5 130.5 29.5 132.0 24.5 129.7 C15.9 125.8 13.2 115.2 11.4 106.0 C7.9 87.2 4.4 68.4 0.9 49.7 C0.4 47.0 0.0 43.8 1.8 41.8 C3.5 39.7 6.5 39.6 9.2 39.6 C48.7 39.6 88.2 39.7 127.7 39.8 C143.6 39.8 153.5 22.5 158.3 7.3 C160.5 0.7 169.4 0.0 176.4 0.6 C205.3 2.8 234.2 5.1 263.1 7.4 C269.5 7.9 274.5 13.6 276.4 19.7 C278.3 25.8 277.6 32.4 277.0 38.8 C283.8 34.1 290.9 29.4 299.0 27.5 C304.0 26.3 309.3 26.4 314.4 26.4 C340.1 26.6 365.7 26.7 391.3 26.9 C399.4 26.9 410.0 29.2 410.5 37.2 C416.9 26.0 424.4 15.5 432.7 5.6 C434.0 4.1 435.4 2.6 437.4 2.2 C442.5 1.1 445.0 8.1 445.3 13.3 C445.9 23.6 446.6 33.9 447.2 44.2 C492.3 43.7 537.3 43.3 582.3 42.8 C588.6 42.7 597.4 45.9 595.4 51.8 C594.0 55.6 589.0 56.3 585.0 56.3 C541.2 56.2 497.4 56.1 453.7 56.0 C453.3 62.4 446.8 67.7 440.5 66.7 C440.6 58.4 428.9 52.7 422.4 58.0 C415.0 64.1 417.7 76.9 411.2 83.8 C409.3 76.8 409.9 69.0 413.0 62.4 C408.7 64.5 405.6 68.7 404.7 73.4 C372.6 74.2 340.4 74.9 308.3 75.7 C301.8 75.8 293.0 74.0 292.9 67.5 M259.7 25.3 C261.3 21.6 264.9 18.8 268.9 18.1 C269.4 15.2 265.3 13.9 262.3 13.8 C241.2 13.0 220.0 13.4 198.9 14.8 C197.0 18.0 195.5 22.9 198.7 24.7 C199.8 25.4 201.1 25.4 202.3 25.4 C221.5 25.3 240.6 25.3 259.7 25.3 M195.2 92.9 C193.6 97.2 196.9 102.2 201.2 103.9 C205.5 105.6 210.4 104.7 214.8 103.4 C215.9 103.0 217.0 102.6 217.9 101.9 C220.8 99.7 220.7 95.0 218.4 92.1 C216.2 89.3 212.5 88.0 208.9 87.4 C203.6 86.6 197.0 87.9 195.2 92.9 M418.4 35.0 C424.2 35.8 430.0 35.9 435.8 35.3 C437.1 35.1 438.6 34.9 439.6 34.1 C442.1 32.1 441.2 28.2 439.5 25.5 C437.8 22.9 435.4 20.5 435.2 17.4 C435.1 15.3 431.8 16.1 430.4 17.6 C425.4 22.6 421.3 28.6 418.4 35.0 M192.4 86.3 C188.5 86.9 185.2 90.5 184.9 94.5 C184.6 98.5 187.3 102.6 191.1 103.8 C192.1 104.1 193.2 104.3 194.2 104.0 C190.4 99.0 189.7 91.9 192.4 86.3 " fill="#000000" stroke="none"/> </svg>